<?xml version="1.0" standalone="no"?>
<!DOCTYPE svg PUBLIC "-//W3C//DTD SVG 20010904//EN"
 "http://www.w3.org/TR/2001/REC-SVG-20010904/DTD/svg10.dtd">
<svg version="1.0" xmlns="http://www.w3.org/2000/svg"
 width="512.000000pt" height="512.000000pt" viewBox="0 0 512.000000 512.000000"
 preserveAspectRatio="xMidYMid meet">
<metadata>
Created by potrace 1.14, written by Peter Selinger 2001-2017
</metadata>
<g transform="translate(0.000000,512.000000) scale(0.100000,-0.100000)"
fill="#000000" stroke="none">
<path d="M2358 5035 c-2 -2 -35 -7 -73 -10 -39 -4 -72 -8 -75 -10 -3 -2 -30
-6 -60 -10 -116 -14 -340 -76 -490 -134 -100 -40 -233 -102 -315 -149 -75 -43
-242 -153 -275 -181 -14 -11 -30 -24 -35 -28 -95 -73 -275 -244 -360 -343
-160 -186 -281 -381 -398 -640 -70 -155 -145 -426 -172 -620 -3 -25 -8 -58
-11 -75 -2 -16 -6 -122 -8 -235 -4 -255 14 -417 79 -688 12 -52 85 -262 110
-318 42 -95 98 -209 105 -214 3 -3 14 -21 23 -40 21 -42 35 -65 64 -107 13
-17 23 -34 23 -38 0 -18 183 -246 276 -344 156 -163 380 -340 559 -442 61 -34
265 -134 305 -148 19 -7 44 -17 55 -21 53 -22 145 -53 199 -66 171 -43 171
-43 301 -64 154 -25 480 -34 625 -17 100 12 175 23 220 32 14 3 34 7 45 9 236
48 507 152 732 282 26 16 50 32 51 36 2 4 8 8 13 8 20 0 149 93 289 207 85 69
261 249 331 338 64 81 172 237 214 309 118 206 234 498 269 681 1 6 5 19 9 30
3 11 8 36 11 55 3 19 12 78 20 130 18 121 16 94 20 320 2 107 -1 227 -5 265
-5 39 -11 93 -15 120 -16 135 -79 378 -136 525 -174 450 -455 819 -855 1124
-35 26 -63 44 -63 41 0 -3 -9 2 -19 12 -58 54 -439 253 -484 253 -7 0 -17 4
-22 9 -25 23 -343 110 -460 125 -44 6 -121 19 -140 23 -24 6 -472 13 -477 8z
m438 -649 c233 -27 540 -137 744 -269 213 -137 415 -334 545 -529 21 -32 42
-55 48 -51 6 3 7 1 3 -5 -4 -7 8 -38 26 -69 19 -32 41 -74 50 -93 9 -19 25
-55 37 -80 40 -88 102 -296 124 -414 29 -163 31 -463 3 -611 -22 -124 -68
-296 -96 -360 -71 -164 -195 -395 -211 -395 -4 0 -40 34 -80 75 -40 41 -76 72
-81 69 -5 -3 -7 -1 -6 4 5 14 -305 321 -316 315 -6 -4 -7 -2 -3 2 4 5 -20 37
-55 72 -51 52 -58 62 -37 58 210 -35 255 -30 308 30 53 61 53 149 0 210 -32
36 -65 50 -139 60 -25 3 -57 8 -72 11 -67 10 -86 13 -143 20 -33 5 -64 8 -70
8 -6 1 -11 47 -13 113 l-3 111 28 5 c15 3 99 16 187 28 172 24 202 36 243 98
43 64 23 157 -45 209 -30 22 -45 27 -96 26 -34 0 -77 -3 -96 -7 -82 -15 -220
-30 -226 -25 -3 4 -8 21 -11 40 -2 18 -16 64 -29 102 -13 38 -24 72 -24 76 0
3 60 45 133 94 72 48 141 99 151 113 11 14 21 48 24 75 6 66 -18 117 -71 152
-35 23 -50 27 -93 24 -44 -4 -68 -16 -197 -102 l-147 -97 -42 34 c-254 207
-648 221 -929 34 l-57 -37 -113 114 c-62 63 -116 113 -121 110 -5 -3 -7 -1 -6
4 4 13 -144 162 -155 155 -6 -3 -7 -2 -4 3 3 6 -31 46 -76 91 l-82 80 25 16
c14 8 52 32 85 53 61 38 211 116 231 120 6 1 27 9 45 17 77 35 288 93 379 104
25 3 65 9 90 13 46 7 362 4 436 -4z m-1379 -1136 c141 -140 260 -254 265 -252
5 1 7 -1 5 -5 -3 -5 428 -442 959 -972 530 -530 961 -968 958 -973 -6 -9 -131
-85 -216 -130 -97 -52 -294 -124 -403 -149 -77 -17 -87 -19 -135 -25 -25 -3
-54 -9 -65 -11 -45 -12 -383 -10 -460 2 -44 7 -96 16 -115 19 -19 3 -70 15
-113 26 -43 11 -83 17 -89 14 -6 -4 -8 -3 -5 3 4 6 -13 16 -41 23 -26 7 -51
16 -57 20 -5 4 -21 11 -35 15 -100 30 -378 197 -489 292 -57 50 -186 178 -234
234 -72 83 -186 265 -247 391 -33 69 -60 131 -60 138 0 6 -5 8 -12 4 -7 -4 -8
-3 -4 4 4 7 -4 47 -18 91 -30 94 -52 189 -62 257 -3 27 -8 58 -11 69 -12 47
-10 385 3 465 42 281 133 531 271 744 l44 69 56 -54 c30 -30 170 -169 310
-309z"/>
<path d="M1728 2445 c-3 -3 -51 -10 -138 -21 -19 -2 -46 -6 -60 -9 -14 -3 -43
-7 -65 -10 -91 -11 -119 -25 -159 -79 -29 -39 -29 -133 0 -172 40 -54 70 -69
137 -69 34 1 82 4 107 8 215 34 230 33 230 -6 0 -14 10 -55 23 -93 13 -38 25
-75 28 -82 2 -8 -48 -49 -130 -105 -74 -51 -144 -105 -155 -120 -29 -40 -29
-134 0 -173 39 -52 71 -69 133 -69 57 0 62 2 204 97 l146 98 75 -54 c168 -120
385 -170 589 -134 l59 11 -491 491 c-427 427 -515 508 -533 491z"/>
</g>
</svg>
